<?plantuml 1.2026.2beta1?>
<svg xmlns="http://www.w3.org/2000/svg" xmlns:xlink="http://www.w3.org/1999/xlink" contentStyleType="text/css" data-diagram-type="CLASS" height="610px" preserveAspectRatio="none" style="width:1440px;height:610px;background:#FFFFFF;" version="1.1" viewBox="0 0 1440 610" width="1440px" zoomAndPan="magnify"><defs/><g><!--class RetrievalAlgorithms--><g class="entity" data-qualified-name="RetrievalAlgorithms" data-source-line="2" id="ent0002"><rect fill="#F1F1F1" height="48" rx="2.5" ry="2.5" style="stroke:#181818;stroke-width:0.5;" width="170.7012" x="208.46" y="123.27"/><ellipse cx="223.46" cy="139.27" fill="#EB937F" rx="11" ry="11" style="stroke:#181818;stroke-width:1;"/><path d="M227.5694,145.27 L219.8506,145.27 L219.8506,132.8794 L227.5694,132.8794 L227.5694,135.0356 L222.3038,135.0356 L222.3038,137.7075 L227.0694,137.7075 L227.0694,139.8637 L222.3038,139.8637 L222.3038,143.1137 L227.5694,143.1137 L227.5694,145.27 Z " fill="#000000"/><text fill="#000000" font-family="sans-serif" font-size="14" lengthAdjust="spacing" textLength="138.7012" x="237.46" y="144.1167">RetrievalAlgorithms</text><line style="stroke:#181818;stroke-width:0.5;" x1="209.46" x2="378.1612" y1="155.27" y2="155.27"/><line style="stroke:#181818;stroke-width:0.5;" x1="209.46" x2="378.1612" y1="163.27" y2="163.27"/></g><!--class Modality--><g class="entity" data-qualified-name="Modality" data-source-line="5" id="ent0003"><rect fill="#F1F1F1" height="48" rx="2.5" ry="2.5" style="stroke:#181818;stroke-width:0.5;" width="91.6641" x="617.98" y="339.27"/><ellipse cx="632.98" cy="355.27" fill="#EB937F" rx="11" ry="11" style="stroke:#181818;stroke-width:1;"/><path d="M637.0894,361.27 L629.3706,361.27 L629.3706,348.8794 L637.0894,348.8794 L637.0894,351.0356 L631.8238,351.0356 L631.8238,353.7075 L636.5894,353.7075 L636.5894,355.8638 L631.8238,355.8638 L631.8238,359.1138 L637.0894,359.1138 L637.0894,361.27 Z " fill="#000000"/><text fill="#000000" font-family="sans-serif" font-size="14" lengthAdjust="spacing" textLength="59.6641" x="646.98" y="360.1167">Modality</text><line style="stroke:#181818;stroke-width:0.5;" x1="618.98" x2="708.6441" y1="371.27" y2="371.27"/><line style="stroke:#181818;stroke-width:0.5;" x1="618.98" x2="708.6441" y1="379.27" y2="379.27"/></g><!--class RetrievalStrategy--><g class="entity" data-qualified-name="RetrievalStrategy" data-source-line="10" id="ent0004"><rect fill="#F1F1F1" height="48" rx="2.5" ry="2.5" style="stroke:#181818;stroke-width:0.5;" width="154.8281" x="450.39" y="123.27"/><ellipse cx="465.39" cy="139.27" fill="#A9DCDF" rx="11" ry="11" style="stroke:#181818;stroke-width:1;"/><path d="M465.4994,134.6137 L464.3431,139.6919 L466.6713,139.6919 L465.4994,134.6137 Z M464.015,132.3794 L466.9994,132.3794 L470.3588,144.77 L467.9056,144.77 L467.14,141.7075 L463.8588,141.7075 L463.1088,144.77 L460.6713,144.77 L464.015,132.3794 Z " fill="#000000"/><text fill="#000000" font-family="sans-serif" font-size="14" font-style="italic" lengthAdjust="spacing" textLength="122.8281" x="479.39" y="144.1167">RetrievalStrategy</text><line style="stroke:#181818;stroke-width:0.5;" x1="451.39" x2="604.2181" y1="155.27" y2="155.27"/><line style="stroke:#181818;stroke-width:0.5;" x1="451.39" x2="604.2181" y1="163.27" y2="163.27"/></g><!--class RandomStrategy--><g class="entity" data-qualified-name="RandomStrategy" data-source-line="14" id="ent0005"><rect fill="#F1F1F1" height="48" rx="2.5" ry="2.5" style="stroke:#181818;stroke-width:0.5;" width="150.2549" x="312.68" y="339.27"/><ellipse cx="327.68" cy="355.27" fill="#ADD1B2" rx="11" ry="11" style="stroke:#181818;stroke-width:1;"/><path d="M330.6488,360.9106 Q330.0706,361.2075 329.43,361.3481 Q328.7894,361.5044 328.0863,361.5044 Q325.5863,361.5044 324.2581,359.8638 Q322.9456,358.2075 322.9456,355.0825 Q322.9456,351.9575 324.2581,350.3013 Q325.5863,348.645 328.0863,348.645 Q328.7894,348.645 329.43,348.8013 Q330.0863,348.9575 330.6488,349.2544 L330.6488,351.9731 Q330.0238,351.395 329.43,351.1294 Q328.8363,350.8481 328.2113,350.8481 Q326.8675,350.8481 326.18,351.9263 Q325.4925,352.9888 325.4925,355.0825 Q325.4925,357.1763 326.18,358.2544 Q326.8675,359.3169 328.2113,359.3169 Q328.8363,359.3169 329.43,359.0513 Q330.0238,358.77 330.6488,358.1919 L330.6488,360.9106 Z " fill="#000000"/><text fill="#000000" font-family="sans-serif" font-size="14" lengthAdjust="spacing" textLength="118.2549" x="341.68" y="360.1167">RandomStrategy</text><line style="stroke:#181818;stroke-width:0.5;" x1="313.68" x2="461.9349" y1="371.27" y2="371.27"/><line style="stroke:#181818;stroke-width:0.5;" x1="313.68" x2="461.9349" y1="379.27" y2="379.27"/></g><!--class UnimodalStrategy--><g class="entity" data-qualified-name="UnimodalStrategy" data-source-line="17" id="ent0006"><rect fill="#F1F1F1" height="48" rx="2.5" ry="2.5" style="stroke:#181818;stroke-width:0.5;" width="158.5537" x="176.53" y="231.27"/><ellipse cx="191.53" cy="247.27" fill="#ADD1B2" rx="11" ry="11" style="stroke:#181818;stroke-width:1;"/><path d="M194.4988,252.9106 Q193.9206,253.2075 193.28,253.3481 Q192.6394,253.5044 191.9363,253.5044 Q189.4363,253.5044 188.1081,251.8637 Q186.7956,250.2075 186.7956,247.0825 Q186.7956,243.9575 188.1081,242.3012 Q189.4363,240.645 191.9363,240.645 Q192.6394,240.645 193.28,240.8012 Q193.9363,240.9575 194.4988,241.2544 L194.4988,243.9731 Q193.8738,243.395 193.28,243.1294 Q192.6863,242.8481 192.0613,242.8481 Q190.7175,242.8481 190.03,243.9262 Q189.3425,244.9887 189.3425,247.0825 Q189.3425,249.1762 190.03,250.2544 Q190.7175,251.3169 192.0613,251.3169 Q192.6863,251.3169 193.28,251.0512 Q193.8738,250.77 194.4988,250.1919 L194.4988,252.9106 Z " fill="#000000"/><text fill="#000000" font-family="sans-serif" font-size="14" lengthAdjust="spacing" textLength="126.5537" x="205.53" y="252.1167">UnimodalStrategy</text><line style="stroke:#181818;stroke-width:0.5;" x1="177.53" x2="334.0837" y1="263.27" y2="263.27"/><line style="stroke:#181818;stroke-width:0.5;" x1="177.53" x2="334.0837" y1="271.27" y2="271.27"/></g><!--class EarlyFusionStrategy--><g class="entity" data-qualified-name="EarlyFusionStrategy" data-source-line="20" id="ent0007"><rect fill="#F1F1F1" height="48" rx="2.5" ry="2.5" style="stroke:#181818;stroke-width:0.5;" width="172.8887" x="946.36" y="231.27"/><ellipse cx="961.36" cy="247.27" fill="#ADD1B2" rx="11" ry="11" style="stroke:#181818;stroke-width:1;"/><path d="M964.3288,252.9106 Q963.7506,253.2075 963.11,253.3481 Q962.4694,253.5044 961.7663,253.5044 Q959.2663,253.5044 957.9381,251.8637 Q956.6256,250.2075 956.6256,247.0825 Q956.6256,243.9575 957.9381,242.3012 Q959.2663,240.645 961.7663,240.645 Q962.4694,240.645 963.11,240.8012 Q963.7663,240.9575 964.3288,241.2544 L964.3288,243.9731 Q963.7038,243.395 963.11,243.1294 Q962.5163,242.8481 961.8913,242.8481 Q960.5475,242.8481 959.86,243.9262 Q959.1725,244.9887 959.1725,247.0825 Q959.1725,249.1762 959.86,250.2544 Q960.5475,251.3169 961.8913,251.3169 Q962.5163,251.3169 963.11,251.0512 Q963.7038,250.77 964.3288,250.1919 L964.3288,252.9106 Z " fill="#000000"/><text fill="#000000" font-family="sans-serif" font-size="14" lengthAdjust="spacing" textLength="140.8887" x="975.36" y="252.1167">EarlyFusionStrategy</text><line style="stroke:#181818;stroke-width:0.5;" x1="947.36" x2="1118.2487" y1="263.27" y2="263.27"/><line style="stroke:#181818;stroke-width:0.5;" x1="947.36" x2="1118.2487" y1="271.27" y2="271.27"/></g><!--class LateFusionStrategy--><g class="entity" data-qualified-name="LateFusionStrategy" data-source-line="23" id="ent0008"><rect fill="#F1F1F1" height="48" rx="2.5" ry="2.5" style="stroke:#181818;stroke-width:0.5;" width="168.0146" x="440.8" y="231.27"/><ellipse cx="455.8" cy="247.27" fill="#ADD1B2" rx="11" ry="11" style="stroke:#181818;stroke-width:1;"/><path d="M458.7688,252.9106 Q458.1906,253.2075 457.55,253.3481 Q456.9094,253.5044 456.2063,253.5044 Q453.7063,253.5044 452.3781,251.8637 Q451.0656,250.2075 451.0656,247.0825 Q451.0656,243.9575 452.3781,242.3012 Q453.7063,240.645 456.2063,240.645 Q456.9094,240.645 457.55,240.8012 Q458.2063,240.9575 458.7688,241.2544 L458.7688,243.9731 Q458.1438,243.395 457.55,243.1294 Q456.9563,242.8481 456.3313,242.8481 Q454.9875,242.8481 454.3,243.9262 Q453.6125,244.9887 453.6125,247.0825 Q453.6125,249.1762 454.3,250.2544 Q454.9875,251.3169 456.3313,251.3169 Q456.9563,251.3169 457.55,251.0512 Q458.1438,250.77 458.7688,250.1919 L458.7688,252.9106 Z " fill="#000000"/><text fill="#000000" font-family="sans-serif" font-size="14" lengthAdjust="spacing" textLength="136.0146" x="469.8" y="252.1167">LateFusionStrategy</text><line style="stroke:#181818;stroke-width:0.5;" x1="441.8" x2="607.8146" y1="263.27" y2="263.27"/><line style="stroke:#181818;stroke-width:0.5;" x1="441.8" x2="607.8146" y1="271.27" y2="271.27"/></g><!--class NeuralNetworkStrategy--><g class="entity" data-qualified-name="NeuralNetworkStrategy" data-source-line="26" id="ent0009"><rect fill="#F1F1F1" height="48" rx="2.5" ry="2.5" style="stroke:#181818;stroke-width:0.5;" width="196.623" x="714.5" y="231.27"/><ellipse cx="729.5" cy="247.27" fill="#ADD1B2" rx="11" ry="11" style="stroke:#181818;stroke-width:1;"/><path d="M732.4688,252.9106 Q731.8906,253.2075 731.25,253.3481 Q730.6094,253.5044 729.9063,253.5044 Q727.4063,253.5044 726.0781,251.8637 Q724.7656,250.2075 724.7656,247.0825 Q724.7656,243.9575 726.0781,242.3012 Q727.4063,240.645 729.9063,240.645 Q730.6094,240.645 731.25,240.8012 Q731.9063,240.9575 732.4688,241.2544 L732.4688,243.9731 Q731.8438,243.395 731.25,243.1294 Q730.6563,242.8481 730.0313,242.8481 Q728.6875,242.8481 728,243.9262 Q727.3125,244.9887 727.3125,247.0825 Q727.3125,249.1762 728,250.2544 Q728.6875,251.3169 730.0313,251.3169 Q730.6563,251.3169 731.25,251.0512 Q731.8438,250.77 732.4688,250.1919 L732.4688,252.9106 Z " fill="#000000"/><text fill="#000000" font-family="sans-serif" font-size="14" lengthAdjust="spacing" textLength="164.623" x="743.5" y="252.1167">NeuralNetworkStrategy</text><line style="stroke:#181818;stroke-width:0.5;" x1="715.5" x2="910.123" y1="263.27" y2="263.27"/><line style="stroke:#181818;stroke-width:0.5;" x1="715.5" x2="910.123" y1="271.27" y2="271.27"/></g><!--class RandomBaselineRetrievalSystem--><g class="entity" data-qualified-name="RandomBaselineRetrievalSystem" data-source-line="32" id="ent0010"><rect fill="#F1F1F1" height="48" rx="2.5" ry="2.5" style="stroke:#181818;stroke-width:0.5;" width="264.6748" x="255.47" y="447.27"/><ellipse cx="270.47" cy="463.27" fill="#ADD1B2" rx="11" ry="11" style="stroke:#181818;stroke-width:1;"/><path d="M273.4388,468.9106 Q272.8606,469.2075 272.22,469.3481 Q271.5794,469.5044 270.8763,469.5044 Q268.3763,469.5044 267.0481,467.8638 Q265.7356,466.2075 265.7356,463.0825 Q265.7356,459.9575 267.0481,458.3013 Q268.3763,456.645 270.8763,456.645 Q271.5794,456.645 272.22,456.8013 Q272.8763,456.9575 273.4388,457.2544 L273.4388,459.9731 Q272.8138,459.395 272.22,459.1294 Q271.6263,458.8481 271.0013,458.8481 Q269.6575,458.8481 268.97,459.9263 Q268.2825,460.9888 268.2825,463.0825 Q268.2825,465.1763 268.97,466.2544 Q269.6575,467.3169 271.0013,467.3169 Q271.6263,467.3169 272.22,467.0513 Q272.8138,466.77 273.4388,466.1919 L273.4388,468.9106 Z " fill="#000000"/><text fill="#000000" font-family="sans-serif" font-size="14" lengthAdjust="spacing" textLength="232.6748" x="284.47" y="468.1167">RandomBaselineRetrievalSystem</text><line style="stroke:#181818;stroke-width:0.5;" x1="256.47" x2="519.1448" y1="479.27" y2="479.27"/><line style="stroke:#181818;stroke-width:0.5;" x1="256.47" x2="519.1448" y1="487.27" y2="487.27"/></g><!--class UnimodalRetrievalSystem--><g class="entity" data-qualified-name="UnimodalRetrievalSystem" data-source-line="36" id="ent0011"><rect fill="#F1F1F1" height="48" rx="2.5" ry="2.5" style="stroke:#181818;stroke-width:0.5;" width="213.6172" x="7" y="447.27"/><ellipse cx="22" cy="463.27" fill="#ADD1B2" rx="11" ry="11" style="stroke:#181818;stroke-width:1;"/><path d="M24.9688,468.9106 Q24.3906,469.2075 23.75,469.3481 Q23.1094,469.5044 22.4063,469.5044 Q19.9063,469.5044 18.5781,467.8638 Q17.2656,466.2075 17.2656,463.0825 Q17.2656,459.9575 18.5781,458.3013 Q19.9063,456.645 22.4063,456.645 Q23.1094,456.645 23.75,456.8013 Q24.4063,456.9575 24.9688,457.2544 L24.9688,459.9731 Q24.3438,459.395 23.75,459.1294 Q23.1563,458.8481 22.5313,458.8481 Q21.1875,458.8481 20.5,459.9263 Q19.8125,460.9888 19.8125,463.0825 Q19.8125,465.1763 20.5,466.2544 Q21.1875,467.3169 22.5313,467.3169 Q23.1563,467.3169 23.75,467.0513 Q24.3438,466.77 24.9688,466.1919 L24.9688,468.9106 Z " fill="#000000"/><text fill="#000000" font-family="sans-serif" font-size="14" lengthAdjust="spacing" textLength="181.6172" x="36" y="468.1167">UnimodalRetrievalSystem</text><line style="stroke:#181818;stroke-width:0.5;" x1="8" x2="219.6172" y1="479.27" y2="479.27"/><line style="stroke:#181818;stroke-width:0.5;" x1="8" x2="219.6172" y1="487.27" y2="487.27"/></g><!--class EarlyFusionRetrievalSystem--><g class="entity" data-qualified-name="EarlyFusionRetrievalSystem" data-source-line="40" id="ent0012"><rect fill="#F1F1F1" height="48" rx="2.5" ry="2.5" style="stroke:#181818;stroke-width:0.5;" width="227.9521" x="1142.83" y="447.27"/><ellipse cx="1157.83" cy="463.27" fill="#ADD1B2" rx="11" ry="11" style="stroke:#181818;stroke-width:1;"/><path d="M1160.7988,468.9106 Q1160.2206,469.2075 1159.58,469.3481 Q1158.9394,469.5044 1158.2363,469.5044 Q1155.7363,469.5044 1154.4081,467.8638 Q1153.0956,466.2075 1153.0956,463.0825 Q1153.0956,459.9575 1154.4081,458.3013 Q1155.7363,456.645 1158.2363,456.645 Q1158.9394,456.645 1159.58,456.8013 Q1160.2363,456.9575 1160.7988,457.2544 L1160.7988,459.9731 Q1160.1738,459.395 1159.58,459.1294 Q1158.9863,458.8481 1158.3613,458.8481 Q1157.0175,458.8481 1156.33,459.9263 Q1155.6425,460.9888 1155.6425,463.0825 Q1155.6425,465.1763 1156.33,466.2544 Q1157.0175,467.3169 1158.3613,467.3169 Q1158.9863,467.3169 1159.58,467.0513 Q1160.1738,466.77 1160.7988,466.1919 L1160.7988,468.9106 Z " fill="#000000"/><text fill="#000000" font-family="sans-serif" font-size="14" lengthAdjust="spacing" textLength="195.9521" x="1171.83" y="468.1167">EarlyFusionRetrievalSystem</text><line style="stroke:#181818;stroke-width:0.5;" x1="1143.83" x2="1369.7821" y1="479.27" y2="479.27"/><line style="stroke:#181818;stroke-width:0.5;" x1="1143.83" x2="1369.7821" y1="487.27" y2="487.27"/></g><!--class LateFusionRetrievalSystem--><g class="entity" data-qualified-name="LateFusionRetrievalSystem" data-source-line="44" id="ent0013"><rect fill="#F1F1F1" height="48" rx="2.5" ry="2.5" style="stroke:#181818;stroke-width:0.5;" width="223.0781" x="555.27" y="447.27"/><ellipse cx="570.27" cy="463.27" fill="#ADD1B2" rx="11" ry="11" style="stroke:#181818;stroke-width:1;"/><path d="M573.2388,468.9106 Q572.6606,469.2075 572.02,469.3481 Q571.3794,469.5044 570.6763,469.5044 Q568.1763,469.5044 566.8481,467.8638 Q565.5356,466.2075 565.5356,463.0825 Q565.5356,459.9575 566.8481,458.3013 Q568.1763,456.645 570.6763,456.645 Q571.3794,456.645 572.02,456.8013 Q572.6763,456.9575 573.2388,457.2544 L573.2388,459.9731 Q572.6138,459.395 572.02,459.1294 Q571.4263,458.8481 570.8013,458.8481 Q569.4575,458.8481 568.77,459.9263 Q568.0825,460.9888 568.0825,463.0825 Q568.0825,465.1763 568.77,466.2544 Q569.4575,467.3169 570.8013,467.3169 Q571.4263,467.3169 572.02,467.0513 Q572.6138,466.77 573.2388,466.1919 L573.2388,468.9106 Z " fill="#000000"/><text fill="#000000" font-family="sans-serif" font-size="14" lengthAdjust="spacing" textLength="191.0781" x="584.27" y="468.1167">LateFusionRetrievalSystem</text><line style="stroke:#181818;stroke-width:0.5;" x1="556.27" x2="777.3481" y1="479.27" y2="479.27"/><line style="stroke:#181818;stroke-width:0.5;" x1="556.27" x2="777.3481" y1="487.27" y2="487.27"/></g><!--class NeuralNetworkBasedRetrievalSystem--><g class="entity" data-qualified-name="NeuralNetworkBasedRetrievalSystem" data-source-line="47" id="ent0014"><rect fill="#F1F1F1" height="48" rx="2.5" ry="2.5" style="stroke:#181818;stroke-width:0.5;" width="294.6641" x="813.48" y="447.27"/><ellipse cx="828.48" cy="463.27" fill="#ADD1B2" rx="11" ry="11" style="stroke:#181818;stroke-width:1;"/><path d="M831.4488,468.9106 Q830.8706,469.2075 830.23,469.3481 Q829.5894,469.5044 828.8863,469.5044 Q826.3863,469.5044 825.0581,467.8638 Q823.7456,466.2075 823.7456,463.0825 Q823.7456,459.9575 825.0581,458.3013 Q826.3863,456.645 828.8863,456.645 Q829.5894,456.645 830.23,456.8013 Q830.8863,456.9575 831.4488,457.2544 L831.4488,459.9731 Q830.8238,459.395 830.23,459.1294 Q829.6363,458.8481 829.0113,458.8481 Q827.6675,458.8481 826.98,459.9263 Q826.2925,460.9888 826.2925,463.0825 Q826.2925,465.1763 826.98,466.2544 Q827.6675,467.3169 829.0113,467.3169 Q829.6363,467.3169 830.23,467.0513 Q830.8238,466.77 831.4488,466.1919 L831.4488,468.9106 Z " fill="#000000"/><text fill="#000000" font-family="sans-serif" font-size="14" lengthAdjust="spacing" textLength="262.6641" x="842.48" y="468.1167">NeuralNetworkBasedRetrievalSystem</text><line style="stroke:#181818;stroke-width:0.5;" x1="814.48" x2="1107.1441" y1="479.27" y2="479.27"/><line style="stroke:#181818;stroke-width:0.5;" x1="814.48" x2="1107.1441" y1="487.27" y2="487.27"/></g><!--class Evaluator--><g class="entity" data-qualified-name="Evaluator" data-source-line="52" id="ent0015"><rect fill="#F1F1F1" height="48" rx="2.5" ry="2.5" style="stroke:#181818;stroke-width:0.5;" width="98.8623" x="764.38" y="555.27"/><ellipse cx="779.38" cy="571.27" fill="#ADD1B2" rx="11" ry="11" style="stroke:#181818;stroke-width:1;"/><path d="M782.3488,576.9106 Q781.7706,577.2075 781.13,577.3481 Q780.4894,577.5044 779.7863,577.5044 Q777.2863,577.5044 775.9581,575.8638 Q774.6456,574.2075 774.6456,571.0825 Q774.6456,567.9575 775.9581,566.3013 Q777.2863,564.645 779.7863,564.645 Q780.4894,564.645 781.13,564.8013 Q781.7863,564.9575 782.3488,565.2544 L782.3488,567.9731 Q781.7238,567.395 781.13,567.1294 Q780.5363,566.8481 779.9113,566.8481 Q778.5675,566.8481 777.88,567.9263 Q777.1925,568.9888 777.1925,571.0825 Q777.1925,573.1763 777.88,574.2544 Q778.5675,575.3169 779.9113,575.3169 Q780.5363,575.3169 781.13,575.0513 Q781.7238,574.77 782.3488,574.1919 L782.3488,576.9106 Z " fill="#000000"/><text fill="#000000" font-family="sans-serif" font-size="14" lengthAdjust="spacing" textLength="66.8623" x="793.38" y="576.1167">Evaluator</text><line style="stroke:#181818;stroke-width:0.5;" x1="765.38" x2="862.2423" y1="587.27" y2="587.27"/><line style="stroke:#181818;stroke-width:0.5;" x1="765.38" x2="862.2423" y1="595.27" y2="595.27"/></g><!--class Yamex--><g class="entity" data-qualified-name="Yamex" data-source-line="58" id="ent0016"><rect fill="#F1F1F1" height="56.2656" rx="2.5" ry="2.5" style="stroke:#181818;stroke-width:0.5;" width="79.667" x="621.98" y="7"/><ellipse cx="636.98" cy="27.1328" fill="#ADD1B2" rx="11" ry="11" style="stroke:#181818;stroke-width:1;"/><path d="M639.9488,32.7734 Q639.3706,33.0703 638.73,33.2109 Q638.0894,33.3672 637.3863,33.3672 Q634.8863,33.3672 633.5581,31.7266 Q632.2456,30.0703 632.2456,26.9453 Q632.2456,23.8203 633.5581,22.1641 Q634.8863,20.5078 637.3863,20.5078 Q638.0894,20.5078 638.73,20.6641 Q639.3863,20.8203 639.9488,21.1172 L639.9488,23.8359 Q639.3238,23.2578 638.73,22.9922 Q638.1363,22.7109 637.5113,22.7109 Q636.1675,22.7109 635.48,23.7891 Q634.7925,24.8516 634.7925,26.9453 Q634.7925,29.0391 635.48,30.1172 Q636.1675,31.1797 637.5113,31.1797 Q638.1363,31.1797 638.73,30.9141 Q639.3238,30.6328 639.9488,30.0547 L639.9488,32.7734 Z " fill="#000000"/><text fill="#000000" font-family="sans-serif" font-size="12" font-style="italic" lengthAdjust="spacing" textLength="44.666" x="652.4805" y="23.1387">«main»</text><text fill="#000000" font-family="sans-serif" font-size="14" lengthAdjust="spacing" textLength="47.667" x="650.98" y="38.9639">Yamex</text><line style="stroke:#181818;stroke-width:0.5;" x1="622.98" x2="700.647" y1="47.2656" y2="47.2656"/><line style="stroke:#181818;stroke-width:0.5;" x1="622.98" x2="700.647" y1="55.2656" y2="55.2656"/></g><!--reverse link RetrievalStrategy to RandomStrategy--><g class="link" data-entity-1="ent0004" data-entity-2="ent0005" data-link-type="extension" data-source-line="64" id="lnk17"><path codeLine="64" d="M471.7539,181.5504 C449.7539,196.0604 438.95,206.71 422.81,231.27 C400.83,264.71 392.61,311.51 389.56,339.17" fill="none" id="RetrievalStrategy-backto-RandomStrategy" style="stroke:#181818;stroke-width:1;"/><polygon fill="none" points="486.78,171.64,468.4504,176.5417,475.0574,186.5591,486.78,171.64" style="stroke:#181818;stroke-width:1;"/></g><!--reverse link RetrievalStrategy to UnimodalStrategy--><g class="link" data-entity-1="ent0004" data-entity-2="ent0006" data-link-type="extension" data-source-line="65" id="lnk18"><path codeLine="65" d="M451.0087,178.1964 C405.7987,195.8164 360.86,213.33 315.68,230.94" fill="none" id="RetrievalStrategy-backto-UnimodalStrategy" style="stroke:#181818;stroke-width:1;"/><polygon fill="none" points="467.78,171.66,448.8299,172.606,453.1875,183.7868,467.78,171.66" style="stroke:#181818;stroke-width:1;"/></g><!--reverse link RetrievalStrategy to EarlyFusionStrategy--><g class="link" data-entity-1="ent0004" data-entity-2="ent0007" data-link-type="extension" data-source-line="66" id="lnk19"><path codeLine="66" d="M623.138,167.6218 C703.968,184.0818 816.54,207.24 928.81,231.27 C934.41,232.47 940.19,233.72 946,234.98" fill="none" id="RetrievalStrategy-backto-EarlyFusionStrategy" style="stroke:#181818;stroke-width:1;"/><polygon fill="none" points="605.5,164.03,621.9408,173.5011,624.3353,161.7424,605.5,164.03" style="stroke:#181818;stroke-width:1;"/></g><!--reverse link RetrievalStrategy to LateFusionStrategy--><g class="link" data-entity-1="ent0004" data-entity-2="ent0008" data-link-type="extension" data-source-line="67" id="lnk20"><path codeLine="67" d="M526.6412,189.5228 C526.1412,207.2028 525.97,213.4 525.47,231.06" fill="none" id="RetrievalStrategy-backto-LateFusionStrategy" style="stroke:#181818;stroke-width:1;"/><polygon fill="none" points="527.15,171.53,520.6436,189.3532,532.6388,189.6924,527.15,171.53" style="stroke:#181818;stroke-width:1;"/></g><!--reverse link RetrievalStrategy to NeuralNetworkStrategy--><g class="link" data-entity-1="ent0004" data-entity-2="ent0009" data-link-type="extension" data-source-line="68" id="lnk21"><path codeLine="68" d="M607.5807,177.9353 C654.9507,195.5553 702.74,213.33 750.07,230.94" fill="none" id="RetrievalStrategy-backto-NeuralNetworkStrategy" style="stroke:#181818;stroke-width:1;"/><polygon fill="none" points="590.71,171.66,605.4889,183.5589,609.6725,172.3117,590.71,171.66" style="stroke:#181818;stroke-width:1;"/></g><!--reverse link RandomStrategy to RandomBaselineRetrievalSystem--><g class="link" data-entity-1="ent0005" data-entity-2="ent0010" data-link-type="aggregation" data-source-line="71" id="lnk22"><path codeLine="71" d="M387.81,399.53 C387.81,417.21 387.81,429.4 387.81,447.06" fill="none" id="RandomStrategy-backto-RandomBaselineRetrievalSystem" style="stroke:#181818;stroke-width:1;"/><polygon fill="none" points="387.81,387.53,383.81,393.53,387.81,399.53,391.81,393.53,387.81,387.53" style="stroke:#181818;stroke-width:1;"/></g><!--reverse link UnimodalStrategy to UnimodalRetrievalSystem--><g class="link" data-entity-1="ent0006" data-entity-2="ent0011" data-link-type="aggregation" data-source-line="72" id="lnk23"><path codeLine="72" d="M233.7055,289.5792 C206.3955,330.7392 156.56,405.85 129.26,446.99" fill="none" id="UnimodalStrategy-backto-UnimodalRetrievalSystem" style="stroke:#181818;stroke-width:1;"/><polygon fill="none" points="240.34,279.58,233.6897,282.3681,233.7055,289.5792,240.3558,286.7911,240.34,279.58" style="stroke:#181818;stroke-width:1;"/></g><!--reverse link EarlyFusionStrategy to EarlyFusionRetrievalSystem--><g class="link" data-entity-1="ent0007" data-entity-2="ent0012" data-link-type="aggregation" data-source-line="73" id="lnk24"><path codeLine="73" d="M1065.8874,287.8687 C1108.9774,329.0287 1189.37,405.85 1232.44,446.99" fill="none" id="EarlyFusionStrategy-backto-EarlyFusionRetrievalSystem" style="stroke:#181818;stroke-width:1;"/><polygon fill="none" points="1057.21,279.58,1058.7858,286.6168,1065.8874,287.8687,1064.3116,280.8319,1057.21,279.58" style="stroke:#181818;stroke-width:1;"/></g><!--reverse link LateFusionStrategy to LateFusionRetrievalSystem--><g class="link" data-entity-1="ent0008" data-entity-2="ent0013" data-link-type="aggregation" data-source-line="74" id="lnk25"><path codeLine="74" d="M542.6618,290.1957 C556.9118,316.8857 576.06,351 600.81,387.27 C615.13,408.26 633.19,430.74 646.79,447" fill="none" id="LateFusionStrategy-backto-LateFusionRetrievalSystem" style="stroke:#181818;stroke-width:1;"/><polygon fill="none" points="537.01,279.61,536.3073,286.7868,542.6618,290.1957,543.3645,283.0189,537.01,279.61" style="stroke:#181818;stroke-width:1;"/></g><!--reverse link NeuralNetworkStrategy to NeuralNetworkBasedRetrievalSystem--><g class="link" data-entity-1="ent0009" data-entity-2="ent0014" data-link-type="aggregation" data-source-line="75" id="lnk26"><path codeLine="75" d="M835.7564,289.4492 C864.2264,330.6092 916.25,405.85 944.71,446.99" fill="none" id="NeuralNetworkStrategy-backto-NeuralNetworkBasedRetrievalSystem" style="stroke:#181818;stroke-width:1;"/><polygon fill="none" points="828.93,279.58,829.0535,286.79,835.7564,289.4492,835.6329,282.2391,828.93,279.58" style="stroke:#181818;stroke-width:1;"/></g><!--reverse link RandomBaselineRetrievalSystem to Evaluator--><g class="link" data-entity-1="ent0010" data-entity-2="ent0015" data-link-type="composition" data-source-line="78" id="lnk27"><path codeLine="78" d="M493.7349,498.6278 C580.7349,520.2778 694.92,548.69 763.91,565.85" fill="none" id="RandomBaselineRetrievalSystem-backto-Evaluator" style="stroke:#181818;stroke-width:1;"/><polygon fill="#181818" points="482.09,495.73,486.9465,501.0605,493.7349,498.6278,488.8784,493.2973,482.09,495.73" style="stroke:#181818;stroke-width:1;"/></g><!--reverse link UnimodalRetrievalSystem to Evaluator--><g class="link" data-entity-1="ent0011" data-entity-2="ent0015" data-link-type="composition" data-source-line="79" id="lnk28"><path codeLine="79" d="M232.783,494.4735 C238.483,495.4635 232.3,494.36 237.81,495.27 C431.95,527.25 664.06,558.61 764.01,571.78" fill="none" id="UnimodalRetrievalSystem-backto-Evaluator" style="stroke:#181818;stroke-width:1;"/><polygon fill="#181818" points="220.96,492.42,226.187,497.3877,232.783,494.4735,227.556,489.5057,220.96,492.42" style="stroke:#181818;stroke-width:1;"/></g><!--reverse link EarlyFusionRetrievalSystem to Evaluator--><g class="link" data-entity-1="ent0012" data-entity-2="ent0015" data-link-type="composition" data-source-line="80" id="lnk29"><path codeLine="80" d="M1147.0994,498.5222 C1055.7294,520.3822 934.86,549.31 863.6,566.36" fill="none" id="EarlyFusionRetrievalSystem-backto-Evaluator" style="stroke:#181818;stroke-width:1;"/><polygon fill="#181818" points="1158.77,495.73,1152.004,493.2359,1147.0994,498.5222,1153.8654,501.0163,1158.77,495.73" style="stroke:#181818;stroke-width:1;"/></g><!--reverse link LateFusionRetrievalSystem to Evaluator--><g class="link" data-entity-1="ent0013" data-entity-2="ent0015" data-link-type="composition" data-source-line="81" id="lnk30"><path codeLine="81" d="M708.8032,502.5489 C733.2232,520.1589 756.9,537.24 781.37,554.88" fill="none" id="LateFusionRetrievalSystem-backto-Evaluator" style="stroke:#181818;stroke-width:1;"/><polygon fill="#181818" points="699.07,495.53,701.597,502.2838,708.8032,502.5489,706.2762,495.7951,699.07,495.53" style="stroke:#181818;stroke-width:1;"/></g><!--reverse link NeuralNetworkBasedRetrievalSystem to Evaluator--><g class="link" data-entity-1="ent0014" data-entity-2="ent0015" data-link-type="composition" data-source-line="82" id="lnk31"><path codeLine="82" d="M918.8154,502.547 C894.3854,520.157 870.72,537.24 846.25,554.88" fill="none" id="NeuralNetworkBasedRetrievalSystem-backto-Evaluator" style="stroke:#181818;stroke-width:1;"/><polygon fill="#181818" points="928.55,495.53,921.3437,495.7937,918.8154,502.547,926.0217,502.2834,928.55,495.53" style="stroke:#181818;stroke-width:1;"/></g><!--link Yamex to RandomBaselineRetrievalSystem--><g class="link" data-entity-1="ent0016" data-entity-2="ent0010" data-link-type="dependency" data-source-line="85" id="lnk32"><path codeLine="85" d="M621.84,38.28 C520.01,44.52 254.4,66.04 190.81,123.27 C138.2,170.62 128.8,215.17 158.81,279.27 C196.01,358.74 279.067,413.8472 334.507,443.9472" fill="none" id="Yamex-to-RandomBaselineRetrievalSystem" style="stroke:#181818;stroke-width:1;stroke-dasharray:7,7;"/><polygon fill="#181818" points="339.78,446.81,333.7791,439.0004,335.3859,444.4243,329.962,446.031,339.78,446.81" style="stroke:#181818;stroke-width:1;"/></g><!--link Yamex to UnimodalRetrievalSystem--><g class="link" data-entity-1="ent0016" data-entity-2="ent0011" data-link-type="dependency" data-source-line="86" id="lnk33"><path codeLine="86" d="M621.67,36.83 C511.66,39.62 209.24,53.61 144.81,123.27 C59.79,215.18 90.5341,379.5093 105.9841,441.2793" fill="none" id="Yamex-to-UnimodalRetrievalSystem" style="stroke:#181818;stroke-width:1;stroke-dasharray:7,7;"/><polygon fill="#181818" points="107.44,447.1,109.1366,437.3984,106.2268,442.2494,101.3757,439.3396,107.44,447.1" style="stroke:#181818;stroke-width:1;"/></g><!--link Yamex to EarlyFusionRetrievalSystem--><g class="link" data-entity-1="ent0016" data-entity-2="ent0012" data-link-type="dependency" data-source-line="87" id="lnk34"><path codeLine="87" d="M701.83,39.28 C802.59,47.86 1063.68,74.34 1133.81,123.27 C1243.36,199.71 1255.9318,376.6206 1256.8818,441.2106" fill="none" id="Yamex-to-EarlyFusionRetrievalSystem" style="stroke:#181818;stroke-width:1;stroke-dasharray:7,7;"/><polygon fill="#181818" points="1256.97,447.21,1260.8372,438.1521,1256.8965,442.2105,1252.8381,438.2698,1256.97,447.21" style="stroke:#181818;stroke-width:1;"/></g><!--link Yamex to LateFusionRetrievalSystem--><g class="link" data-entity-1="ent0016" data-entity-2="ent0013" data-link-type="dependency" data-source-line="88" id="lnk35"><path codeLine="88" d="M701.85,38.46 C797,46.41 1036.17,81.12 1136.81,231.27 C1148.69,248.99 1148.72,261.57 1136.81,279.27 C1092.7,344.8 885.4288,410.6558 761.8488,445.1758" fill="none" id="Yamex-to-LateFusionRetrievalSystem" style="stroke:#181818;stroke-width:1;stroke-dasharray:7,7;"/><polygon fill="#181818" points="756.07,446.79,765.8143,448.2212,760.8857,445.4448,763.662,440.5162,756.07,446.79" style="stroke:#181818;stroke-width:1;"/></g><!--link Yamex to NeuralNetworkBasedRetrievalSystem--><g class="link" data-entity-1="ent0016" data-entity-2="ent0014" data-link-type="dependency" data-source-line="89" id="lnk36"><path codeLine="89" d="M702.07,36.11 C780.01,37.8 954.54,50.18 1076.81,123.27 C1130.68,155.48 1146.28,172.31 1167.81,231.27 C1202.5,326.27 1085.3099,405.48 1013.9299,444.01" fill="none" id="Yamex-to-NeuralNetworkBasedRetrievalSystem" style="stroke:#181818;stroke-width:1;stroke-dasharray:7,7;"/><polygon fill="#181818" points="1008.65,446.86,1018.4699,446.1049,1013.0499,444.485,1014.6698,439.065,1008.65,446.86" style="stroke:#181818;stroke-width:1;"/></g><!--link Yamex to Evaluator--><g class="link" data-entity-1="ent0016" data-entity-2="ent0015" data-link-type="dependency" data-source-line="90" id="lnk37"><path codeLine="90" d="M701.97,38.83 C859.13,50.42 1423.81,102.65 1423.81,254.27 C1423.81,254.27 1423.81,254.27 1423.81,364.27 C1423.81,424.65 1433.08,455.32 1387.81,495.27 C1310.33,563.65 994.1191,575.6285 869.3991,577.7385" fill="none" id="Yamex-to-Evaluator" style="stroke:#181818;stroke-width:1;stroke-dasharray:7,7;"/><polygon fill="#181818" points="863.4,577.84,872.4664,581.6872,868.3993,577.7554,872.3311,573.6883,863.4,577.84" style="stroke:#181818;stroke-width:1;"/></g><!--link Yamex to RetrievalStrategy--><g class="link" data-entity-1="ent0016" data-entity-2="ent0004" data-link-type="dependency" data-source-line="93" id="lnk38"><path codeLine="93" d="M628.34,63.64 C606.17,81.87 582.0348,101.6997 560.9548,119.0297" fill="none" id="Yamex-to-RetrievalStrategy" style="stroke:#181818;stroke-width:1;stroke-dasharray:7,7;"/><polygon fill="#181818" points="556.32,122.84,565.8124,120.2144,560.1823,119.6647,560.732,114.0347,556.32,122.84" style="stroke:#181818;stroke-width:1;"/></g><!--link Yamex to RetrievalAlgorithms--><g class="link" data-entity-1="ent0016" data-entity-2="ent0002" data-link-type="dependency" data-source-line="94" id="lnk39"><path codeLine="94" d="M621.73,48.13 C562.02,66 454.3181,98.2296 377.8081,121.1296" fill="none" id="Yamex-to-RetrievalAlgorithms" style="stroke:#181818;stroke-width:1;stroke-dasharray:7,7;"/><polygon fill="#181818" points="372.06,122.85,381.829,124.1014,376.85,121.4163,379.5351,116.4373,372.06,122.85" style="stroke:#181818;stroke-width:1;"/></g><!--link Yamex to Modality--><g class="link" data-entity-1="ent0016" data-entity-2="ent0003" data-link-type="dependency" data-source-line="95" id="lnk40"><path codeLine="95" d="M661.98,63.66 C662.36,126.62 663.2732,274.2301 663.6332,332.9301" fill="none" id="Yamex-to-Modality" style="stroke:#181818;stroke-width:1;stroke-dasharray:7,7;"/><polygon fill="#181818" points="663.67,338.93,667.6147,329.9056,663.6393,333.9301,659.6149,329.9547,663.67,338.93" style="stroke:#181818;stroke-width:1;"/></g><!--link RetrievalAlgorithms to UnimodalStrategy--><!--link Modality to RandomBaselineRetrievalSystem--><!--link Modality to UnimodalRetrievalSystem--><!--link Modality to EarlyFusionRetrievalSystem--><!--link Modality to LateFusionRetrievalSystem--><!--link Modality to NeuralNetworkBasedRetrievalSystem--><!--link UnimodalStrategy to Modality--><g class="link" data-entity-1="ent0006" data-entity-2="ent0003" data-link-type="dependency" data-source-line="108" id="lnk47"><path codeLine="108" d="M335.44,276.96 C419.51,298.8 543.3327,330.9716 611.8627,348.7716" fill="none" id="UnimodalStrategy-to-Modality" style="stroke:#181818;stroke-width:1;stroke-dasharray:7,7;"/><polygon fill="#181818" points="617.67,350.28,609.9646,344.1459,612.8306,349.023,607.9535,351.8889,617.67,350.28" style="stroke:#181818;stroke-width:1;"/></g><!--link EarlyFusionStrategy to Modality--><g class="link" data-entity-1="ent0007" data-entity-2="ent0003" data-link-type="dependency" data-source-line="109" id="lnk48"><path codeLine="109" d="M951.37,279.66 C877.2,300.97 776.0567,330.023 715.6767,347.373" fill="none" id="EarlyFusionStrategy-to-Modality" style="stroke:#181818;stroke-width:1;stroke-dasharray:7,7;"/><polygon fill="#181818" points="709.91,349.03,719.6647,350.3889,714.7155,347.6491,717.4553,342.7,709.91,349.03" style="stroke:#181818;stroke-width:1;"/></g><!--link LateFusionStrategy to Modality--><g class="link" data-entity-1="ent0008" data-entity-2="ent0003" data-link-type="dependency" data-source-line="110" id="lnk49"><path codeLine="110" d="M555.31,279.53 C578.49,297.21 605.4488,317.7619 628.6088,335.4219" fill="none" id="LateFusionStrategy-to-Modality" style="stroke:#181818;stroke-width:1;stroke-dasharray:7,7;"/><polygon fill="#181818" points="633.38,339.06,628.6487,330.422,629.404,336.0282,623.7978,336.7836,633.38,339.06" style="stroke:#181818;stroke-width:1;"/></g><!--link NeuralNetworkStrategy to Modality--><g class="link" data-entity-1="ent0009" data-entity-2="ent0003" data-link-type="dependency" data-source-line="111" id="lnk50"><path codeLine="111" d="M780.11,279.53 C755.35,297.14 726.3793,317.7623 701.5793,335.4023" fill="none" id="NeuralNetworkStrategy-to-Modality" style="stroke:#181818;stroke-width:1;stroke-dasharray:7,7;"/><polygon fill="#181818" points="696.69,338.88,706.3425,336.923,700.7644,335.9819,701.7055,330.4039,696.69,338.88" style="stroke:#181818;stroke-width:1;"/></g><?plantuml-src ZLNRIWCn47tFL-Ij8BHVK0fL50HRHF51n8VO7MmmboN9gaNzTxFk9PljpDR7dJcJpPbpPZBZbwRIu4IGrdW6yOFVGN0IteLQgrVhPDXhpx_O3sko6ri89SEX2R4PNx_uuCGky7FXWLyeuJqJNMnNVwOJxsCqm6jRFEFzzxKk5MWmeRr8MoTCONLUr6GUZDJrHR3SfN3gS5NvU12MleaHEhk5oWcrXV1XtLiEg2_SC-7t1nz0vpUjEw2aWSJt3zIMvpUVmWmOJC4I4nI54AelME17Th-EyKe4wxfm6tyK6ZxvSgc5DAjLfzyTg4QmlInz9kYj206SOSVIBx_dyv6o56giCeL35AUWn-fJIDG96SVAWqSSCNAjxUaIzc17PhO3xcCmvcwRzs1SWZZUPgqO5-13OCTDmTo43Wale0HJS6kIlzZqo9pLb7eiDJGvQc9iSY0zE3dkzEpa-CXz4-U3Yx9ip26KuhwrHJD1YyNgX1iIZh90Gao8da2qpWbpMjV1Jsc-ll6AX8pkUBwmN7fh1jdkhObR27kKvazxMHHWdf5DmVftgaSLziFCJtMVBAF480icj25hQAd8adzCPDfPKPXQgDJOezMJjHtRDHa0sInP7byaGyWl?></g></svg>